<svg width="16" height="16" viewBox="0 0 16 16" fill="none" xmlns="http://www.w3.org/2000/svg">
<path d="M8.00016 13.3333C8.00016 13.3333 3.3335 10.4 3.3335 6.66663C3.33962 6.12757 3.50899 5.60303 3.81926 5.16217C4.12953 4.72131 4.56613 4.38485 5.07149 4.19714C5.57685 4.00943 6.12724 3.97931 6.65007 4.11073C7.1729 4.24215 7.64362 4.52895 8.00016 4.9333C8.3567 4.52895 8.82742 4.24215 9.35025 4.11073C9.87308 3.97931 10.4235 4.00943 10.9288 4.19714C11.4342 4.38485 11.8708 4.72131 12.1811 5.16217C12.4913 5.60303 12.6607 6.12757 12.6668 6.66663C12.6668 10.4 8.00016 13.3333 8.00016 13.3333Z" stroke="#0077B3" stroke-width="1.75" stroke-linecap="round" stroke-linejoin="round"/>
</svg>
