<svg width="1390" height="340" viewBox="0 0 1390 340" fill="none" xmlns="http://www.w3.org/2000/svg">
<path fill-rule="evenodd" clip-rule="evenodd" d="M562.8 25.8L560 29.8L558.8 34.2L559 39L602.2 230L604 235.2L606.2 239.5L612.8 247.2L620.8 252.8L629.2 256L636.8 257.2H647L658.2 255L665 252L672.2 247L677 242L681.8 234.2L683.8 228.2L705.8 134L707.2 130L708 130.5L731 229.2L734.2 237.2L739 243.8L746.5 250.2L756.2 255L764.5 257L777.8 257.2L785 256L791 254L798.2 250L805.2 243.5L809.8 236.5L812.5 228.8L855.5 38.8L855.8 34L854.8 30.2L850.2 24.5L844.5 21L837.8 19L834.5 18.5L820.8 19L812.5 21.2L808.5 23.2L804.8 26L799 32.8L797 36.8L795 43L772 174.2L770.5 179.2L769.8 179L768.8 176.2L736.8 43.5L731.5 31L727.5 25.5L725.2 23.5L720.2 20.5L715.2 19L711.5 18.5L699 19L693.2 21L689.5 23.2L685.2 27.5L682.2 32.2L679 39.5L676 49.5L647 170.8L644.5 179.2L643.2 178.2L619.8 44.8L616.5 34.8L612.5 28.8L607.5 24.2L601.2 21L593.8 19L589.5 18.5L576.5 19L570 21L562.8 25.8ZM920 58.2L912 68.5L904.2 81.2L899 92.5L895 104L892 116L890.2 128L889.8 151.2L891 165L893 175.8L896 186.8L900.2 198L905.8 209L911 217.2L917 225L926 234.2L934 240.8L941.5 245.8L951.8 251L959.2 254L974.8 258L991.8 259.8L1008.2 259L1025.8 256L1036 253L1047.2 248.2L1058.2 242L1066.8 235.8L1075.2 228L1076.8 229L1083 239.2L1088.2 246L1095.5 252.2L1102 255L1110.5 255.5L1118 254L1126.8 250L1133.2 245L1136.5 240.8L1138.5 236.5L1139.5 232V226.8L1137.5 219.5L1130 207.2L1124.8 196L1121.8 188L1118.8 177.2L1117 165L1116.8 119.2L1115.8 109.8L1112.8 95L1107.8 80.5L1101.8 68.5L1092 54.8L1082 44.5L1071.2 36.2L1061 30.2L1052.2 26.2L1040.2 22.2L1030.2 20L1018.2 18.5L1005.8 18.2L995.2 19L988 20L974.2 23.2L963.5 27L952.5 32.2L944 37.2L934.8 44L920 58.2ZM1020.2 73L1029 76L1037.2 81.5L1041 85.2L1044.8 90.2L1049.8 100.5L1053 113L1054.2 128.8L1053.8 141L1050.8 158L1045.8 172L1041 180.8L1035.5 188.2L1029.5 194.2L1024.2 198.2L1014 203.2L1005.8 205.2L994 205.5L985.5 204L978.5 201.2L975.2 199.2L967 192.2L961 184.2L955.8 173L952.8 161L952 154L952.2 138.2L955 122.5L959 110.5L963.8 100.8L970.8 90.5L978.5 82.8L987.2 77L997.8 73L1006 71.8L1014 72L1020.2 73ZM398.2 18.2L385.2 19L371.5 21L361.8 23.2L349.5 27.2L338.5 32.2L328.2 38.2L317.8 46.2L309 54.8L300.2 65.8L294.2 75.5L289.2 85.8L285 97.5L282 109L280 121.5L279.2 131V147L280 156.2L282 169L285 180.5L289 191.5L292 198.2L299 210.2L307 220.8L315.8 229.8L323.5 236.2L332 242L343.5 248L356.2 253L376.5 257.8L386.5 259L402 259.8L403.5 259.2L417.2 259L431.2 257L443.8 254L455.2 250L466 245L476 239L483 233.8L492.5 225L500.2 216L507.5 205.2L512.8 195.2L517.8 182.5L519.8 175.8L522.8 161.2L524 148.8L524.2 134.2L523.5 122.8L521.8 110.8L518.8 98.8L514.8 87.2L510.5 78L504.5 67.8L495.2 55.8L487 47.5L476.2 39L466.8 33.2L453.2 27L444.2 24L433 21.2L420.5 19.2L398.2 18.2ZM396.5 72L409 72.2L421 74.8L430.8 79L441.8 87L449 95.5L454.8 105.5L458.8 117L461 130.2V147.5L459 160L455 171.8L449.2 182L446 186.2L439.8 192.5L430 199.2L417.5 204L406 205.8L392 205.2L383.2 203.2L371.2 198L362.8 191.8L356 184.5L352 178.8L348.8 172.5L344.8 161.5L342.2 145.8V132L344 119.5L347.8 107.5L354 96L361.5 87.2L366.8 82.8L372.2 79.2L379.5 75.8L385 74L396.5 72ZM104.5 22L96.8 24L83 29L70.8 35.2L59.8 42.8L50 51.2L41 61.5L35.2 69.8L28.2 82.8L25 90.5L21 103.5L18 119L17 129.8V148.2L18 159L21 174.5L26 190L31.2 201.2L36 209.2L43.5 219.2L53 229L58.5 233.8L68.5 240.8L79.8 246.8L93 252L107 255.8L119.5 258L144.8 259.8L160.2 259L170 257.8L184 254.8L196 250.8L208 244.8L216 239.2L224.8 230.5L229.5 223.2L232.8 214.2L233.2 205.2L231.8 198.8L229.5 194.2L226.8 190.5L223.8 187.5L221.5 186.8L216.2 191.2L209.2 196L197.2 202L180.8 207.2L166 209.8L160.5 210.2L141.2 209.8L127.5 207L116.8 203L106.8 197.2L100.8 192.5L96.2 188L89.8 179.2L84.8 169.2L81.8 159.2L79.8 144.5V133.2L81.8 119L83.8 111.8L86.8 104.5L90 98.5L94.5 92.2L98.8 87.5L105.5 82L116.5 76L122.5 74L134.2 72H145.8L157.8 73.8L168.2 77L176.2 80.8L184.8 86L196.5 94.8L200.5 96.8L205.5 98H212.2L218 96.8L224.2 93.8L228.2 90.8L233.5 84.8L236.5 79L237.8 74V67.5L236.8 63.5L233.5 57L230 52.2L223 45L219.2 42L207.2 34.2L196.2 29L186 25.2L165 20.2L142.5 18.2L123 19L104.5 22ZM1358 19L1348.8 17H1339.5L1330 19L1319 24.2L1312.8 29.2L1308.2 34.2L1302.2 44.8L1271 126.2L1268.8 130.5L1268 130.2L1220.5 40.2L1215.2 32.5L1210 27.2L1202.8 22.2L1195 19L1185.5 17H1176L1169.2 18.2L1161.2 21.2L1155.2 25.2L1152.2 29.5L1151.2 33L1151.5 39.8L1153 46L1157 56L1238.2 209L1238 211.2L1208.2 287L1204 301.2L1203.2 306.2V312.2L1204.2 316.5L1206.2 319.8L1208.5 322L1211.8 324L1217.5 326.2L1225.8 327.8H1233.8L1243 326L1250.2 323L1259 317.2L1265.2 310.8L1270.5 302.2L1367.8 51.2L1370.5 38.5V32L1369.8 28.8L1366.2 23.5L1363 21.2L1358 19Z" fill="#00A6E2"/>
</svg>
