<svg width="20" height="20" viewBox="0 0 20 20" fill="none" xmlns="http://www.w3.org/2000/svg">
<path d="M2.5 6.66666H11.6667C12.1611 6.66666 12.6445 6.52003 13.0556 6.24533C13.4667 5.97063 13.7871 5.58018 13.9764 5.12337C14.1656 4.66655 14.2151 4.16388 14.1186 3.67893C14.0222 3.19398 13.7841 2.74852 13.4344 2.39889C13.0848 2.04926 12.6393 1.81116 12.1544 1.71469C11.6694 1.61823 11.1668 1.66774 10.71 1.85696C10.2531 2.04618 9.8627 2.36661 9.58799 2.77773C9.31329 3.18886 9.16667 3.6722 9.16667 4.16666" stroke="#34495A" stroke-width="1.75" stroke-linecap="round" stroke-linejoin="round"/>
<path d="M2.5 10H15.8333C16.3278 10 16.8111 10.1466 17.2223 10.4213C17.6334 10.696 17.9538 11.0865 18.143 11.5433C18.3323 12.0001 18.3818 12.5028 18.2853 12.9877C18.1888 13.4727 17.9507 13.9181 17.6011 14.2678C17.2515 14.6174 16.806 14.8555 16.3211 14.952C15.8361 15.0484 15.3334 14.9989 14.8766 14.8097C14.4198 14.6205 14.0294 14.3 13.7547 13.8889C13.48 13.4778 13.3333 12.9945 13.3333 12.5" stroke="#34495A" stroke-width="1.75" stroke-linecap="round" stroke-linejoin="round"/>
<path d="M2.5 13.3333H8.33333" stroke="#34495A" stroke-width="1.75" stroke-linecap="round" stroke-linejoin="round"/>
</svg>
